<svg xmlns="http://www.w3.org/2000/svg" xmlns:xlink="http://www.w3.org/1999/xlink" width="500" zoomAndPan="magnify" viewBox="0 0 375 374.999991" height="500" preserveAspectRatio="xMidYMid meet" version="1.0"><defs><g/><clipPath id="88660e756f"><path d="M 166 178 L 175 178 L 175 205 L 166 205 Z M 166 178 " clip-rule="nonzero"/></clipPath><clipPath id="0869f29341"><path d="M 161.566406 182.300781 L 172.921875 178.417969 L 180.691406 201.125 L 169.335938 205.007812 Z M 161.566406 182.300781 " clip-rule="nonzero"/></clipPath><clipPath id="bb6ca82148"><path d="M 161.566406 182.300781 L 172.921875 178.417969 L 180.691406 201.125 L 169.335938 205.007812 Z M 161.566406 182.300781 " clip-rule="nonzero"/></clipPath><clipPath id="c716c6e7ec"><path d="M 166 180 L 171 180 L 171 205 L 166 205 Z M 166 180 " clip-rule="nonzero"/></clipPath><clipPath id="c6856e835f"><path d="M 161.566406 182.300781 L 172.921875 178.417969 L 180.691406 201.125 L 169.335938 205.007812 Z M 161.566406 182.300781 " clip-rule="nonzero"/></clipPath><clipPath id="9da3cfc447"><path d="M 161.566406 182.300781 L 172.921875 178.417969 L 180.691406 201.125 L 169.335938 205.007812 Z M 161.566406 182.300781 " clip-rule="nonzero"/></clipPath></defs><g fill="#000000" fill-opacity="1"><g transform="translate(104.952993, 204.453396)"><g><path d="M 33.328125 0 L 33.234375 -17.609375 L 24.6875 -3.28125 L 20.5 -3.28125 L 12.015625 -17.140625 L 12.015625 0 L 3.328125 0 L 3.328125 -33.234375 L 11.0625 -33.234375 L 22.734375 -14.046875 L 34.125 -33.234375 L 41.875 -33.234375 L 41.96875 0 Z M 33.328125 0 "/></g></g></g><g fill="#000000" fill-opacity="1"><g transform="translate(145.397097, 204.453396)"><g><path d="M 2.890625 -25.734375 L 11.921875 -25.734375 L 11.921875 0 L 2.890625 0 Z M 7.40625 -28.578125 C 5.757812 -28.578125 4.425781 -29.035156 3.40625 -29.953125 C 2.394531 -30.867188 1.890625 -32.007812 1.890625 -33.375 C 1.890625 -34.726562 2.394531 -35.863281 3.40625 -36.78125 C 4.425781 -37.707031 5.757812 -38.171875 7.40625 -38.171875 C 9.050781 -38.171875 10.378906 -37.734375 11.390625 -36.859375 C 12.398438 -35.984375 12.90625 -34.867188 12.90625 -33.515625 C 12.90625 -32.085938 12.398438 -30.90625 11.390625 -29.96875 C 10.378906 -29.039062 9.050781 -28.578125 7.40625 -28.578125 Z M 7.40625 -28.578125 "/></g></g></g><g fill="#000000" fill-opacity="1"><g transform="translate(155.413182, 204.453396)"><g><path d="M 19.21875 0 L 14.625 -6.734375 L 9.6875 0 L -0.09375 0 L 9.6875 -12.859375 L 0.1875 -25.734375 L 10.34375 -25.734375 L 14.90625 -19.21875 L 19.65625 -25.734375 L 29.1875 -25.734375 L 19.703125 -13.203125 L 29.53125 0 Z M 19.21875 0 "/></g></g></g><g fill="#000000" fill-opacity="1"><g transform="translate(179.954961, 204.453396)"><g><path d="M 18.515625 -33.234375 C 21.515625 -33.234375 24.125 -32.734375 26.34375 -31.734375 C 28.5625 -30.734375 30.269531 -29.304688 31.46875 -27.453125 C 32.675781 -25.609375 33.28125 -23.4375 33.28125 -20.9375 C 33.28125 -18.4375 32.675781 -16.265625 31.46875 -14.421875 C 30.269531 -12.585938 28.5625 -11.171875 26.34375 -10.171875 C 24.125 -9.179688 21.515625 -8.6875 18.515625 -8.6875 L 12.71875 -8.6875 L 12.71875 0 L 3.328125 0 L 3.328125 -33.234375 Z M 17.9375 -16.09375 C 19.875 -16.09375 21.332031 -16.507812 22.3125 -17.34375 C 23.289062 -18.1875 23.78125 -19.382812 23.78125 -20.9375 C 23.78125 -22.488281 23.289062 -23.691406 22.3125 -24.546875 C 21.332031 -25.398438 19.875 -25.828125 17.9375 -25.828125 L 12.71875 -25.828125 L 12.71875 -16.09375 Z M 17.9375 -16.09375 "/></g></g></g><g fill="#000000" fill-opacity="1"><g transform="translate(210.098165, 204.453396)"><g><path d="M 15.8125 0.421875 C 13.050781 0.421875 10.5625 -0.144531 8.34375 -1.28125 C 6.132812 -2.414062 4.40625 -3.992188 3.15625 -6.015625 C 1.90625 -8.046875 1.28125 -10.34375 1.28125 -12.90625 C 1.28125 -15.4375 1.90625 -17.710938 3.15625 -19.734375 C 4.40625 -21.765625 6.128906 -23.34375 8.328125 -24.46875 C 10.523438 -25.59375 13.019531 -26.15625 15.8125 -26.15625 C 18.59375 -26.15625 21.085938 -25.59375 23.296875 -24.46875 C 25.515625 -23.34375 27.238281 -21.773438 28.46875 -19.765625 C 29.707031 -17.753906 30.328125 -15.46875 30.328125 -12.90625 C 30.328125 -10.34375 29.707031 -8.046875 28.46875 -6.015625 C 27.238281 -3.992188 25.515625 -2.414062 23.296875 -1.28125 C 21.085938 -0.144531 18.59375 0.421875 15.8125 0.421875 Z M 15.8125 -6.734375 C 17.394531 -6.734375 18.691406 -7.28125 19.703125 -8.375 C 20.710938 -9.46875 21.21875 -10.976562 21.21875 -12.90625 C 21.21875 -14.8125 20.710938 -16.300781 19.703125 -17.375 C 18.691406 -18.445312 17.394531 -18.984375 15.8125 -18.984375 C 14.226562 -18.984375 12.925781 -18.445312 11.90625 -17.375 C 10.894531 -16.300781 10.390625 -14.8125 10.390625 -12.90625 C 10.390625 -10.976562 10.894531 -9.46875 11.90625 -8.375 C 12.925781 -7.28125 14.226562 -6.734375 15.8125 -6.734375 Z M 15.8125 -6.734375 "/></g></g></g><g fill="#000000" fill-opacity="1"><g transform="translate(236.871021, 204.453396)"><g><path d="M 30.234375 -35.21875 L 30.234375 0 L 21.640625 0 L 21.640625 -2.5625 C 19.960938 -0.570312 17.445312 0.421875 14.09375 0.421875 C 11.75 0.421875 9.613281 -0.117188 7.6875 -1.203125 C 5.757812 -2.296875 4.234375 -3.851562 3.109375 -5.875 C 1.984375 -7.90625 1.421875 -10.25 1.421875 -12.90625 C 1.421875 -15.570312 1.984375 -17.90625 3.109375 -19.90625 C 4.234375 -21.914062 5.757812 -23.457031 7.6875 -24.53125 C 9.613281 -25.613281 11.75 -26.15625 14.09375 -26.15625 C 17.164062 -26.15625 19.539062 -25.269531 21.21875 -23.5 L 21.21875 -35.21875 Z M 16 -6.734375 C 17.550781 -6.734375 18.832031 -7.28125 19.84375 -8.375 C 20.851562 -9.46875 21.359375 -10.976562 21.359375 -12.90625 C 21.359375 -14.8125 20.859375 -16.300781 19.859375 -17.375 C 18.867188 -18.445312 17.582031 -18.984375 16 -18.984375 C 14.414062 -18.984375 13.113281 -18.445312 12.09375 -17.375 C 11.082031 -16.300781 10.578125 -14.8125 10.578125 -12.90625 C 10.578125 -10.976562 11.082031 -9.46875 12.09375 -8.375 C 13.113281 -7.28125 14.414062 -6.734375 16 -6.734375 Z M 16 -6.734375 "/></g></g></g><g clip-path="url(#88660e756f)"><g clip-path="url(#0869f29341)"><g clip-path="url(#bb6ca82148)"><path fill="#ffffff" d="M 167.289062 180.34375 L 173.113281 178.351562 L 171.171875 187.753906 L 174.582031 186.585938 L 169.328125 204.984375 L 170.003906 191.878906 L 166.351562 193.332031 Z M 167.289062 180.34375 " fill-opacity="1" fill-rule="nonzero"/></g></g></g><g clip-path="url(#c716c6e7ec)"><g clip-path="url(#c6856e835f)"><g clip-path="url(#9da3cfc447)"><path fill="#000000" d="M 167.289062 180.34375 L 168.292969 180 L 166.351562 193.332031 Z M 169.328125 204.984375 L 170.707031 191.636719 L 170.003906 191.878906 Z M 169.328125 204.984375 " fill-opacity="1" fill-rule="nonzero"/></g></g></g></svg>